<svg width="28" height="28" viewBox="0 0 28 28" fill="none" xmlns="http://www.w3.org/2000/svg">
<path d="M13.9866 2.3999C14.0042 2.3999 14.0218 2.3999 14.0399 2.3999C14.2579 2.93944 14.4661 3.48264 14.6728 4.02679C14.7699 4.28255 14.8676 4.5381 14.9654 4.79364C14.9955 4.87243 15.0256 4.95124 15.0558 5.03004C15.1167 5.18924 15.1775 5.34844 15.2384 5.50763C15.3194 5.71947 15.4005 5.93131 15.4815 6.14315C15.4914 6.16922 15.5014 6.19529 15.5117 6.22216C15.6516 6.58818 15.7913 6.9543 15.9309 7.32048C16.0721 7.69089 16.2133 8.06126 16.3548 8.43155C16.3751 8.4845 16.3953 8.53746 16.4155 8.59043C16.5237 8.87393 16.6325 9.15723 16.7425 9.44001C16.7614 9.48852 16.7802 9.53704 16.799 9.58556C16.8343 9.67627 16.8697 9.76691 16.9052 9.85751C16.9209 9.89791 16.9366 9.93832 16.9523 9.97873C16.9596 9.99698 16.9668 10.0152 16.9742 10.034C17.004 10.1111 17.0229 10.1673 17.0229 10.251C19.5893 10.251 22.1558 10.251 24.8 10.251C24.8 10.287 24.8 10.323 24.8 10.3601C24.7457 10.4137 24.6934 10.4587 24.6335 10.5049C24.6158 10.519 24.598 10.5331 24.5797 10.5476C24.5203 10.5946 24.4604 10.641 24.4004 10.6872C24.369 10.7114 24.369 10.7114 24.337 10.7362C24.2483 10.8045 24.1596 10.8726 24.0707 10.9404C23.9217 11.0542 23.7744 11.1697 23.6281 11.2869C23.4389 11.4385 23.2474 11.5865 23.0549 11.7335C22.8822 11.8656 22.7118 12.0004 22.5419 12.1363C22.4111 12.2408 22.2792 12.3436 22.146 12.4451C22.0268 12.5363 21.9087 12.629 21.7903 12.7215C21.603 12.8679 21.4149 13.0133 21.226 13.1577C21.0351 13.3038 20.8462 13.4523 20.6584 13.6026C20.5154 13.7169 20.371 13.829 20.2256 13.94C20.0761 14.0542 19.9277 14.1698 19.7795 14.2856C19.5644 14.4536 19.3485 14.6205 19.1317 14.7864C19.0146 14.8761 18.8977 14.9659 18.7807 15.0557C18.7391 15.0877 18.6975 15.1196 18.6559 15.1516C18.6236 15.1764 18.6236 15.1764 18.5906 15.2017C18.5743 15.2142 18.5579 15.2268 18.541 15.2397C18.7858 16.0401 19.0409 16.8366 19.3008 17.632C19.3529 17.7913 19.4048 17.9507 19.4568 18.1101C19.5548 18.411 19.653 18.7119 19.7512 19.0127C19.9269 19.551 20.1025 20.0892 20.278 20.6276C20.3294 20.7851 20.3807 20.9426 20.4322 21.1001C20.5411 21.4337 20.6498 21.7674 20.758 22.1013C20.7885 22.1952 20.819 22.2891 20.8497 22.383C20.8831 22.4852 20.9162 22.5874 20.9491 22.6898C20.9607 22.7258 20.9724 22.7619 20.9843 22.7978C21 22.8459 21.0154 22.894 21.0308 22.9422C21.0436 22.9817 21.0436 22.9817 21.0567 23.022C21.0718 23.0935 21.0684 23.1319 21.0446 23.1999C21.0288 23.1894 21.0131 23.1788 20.9968 23.168C20.7199 22.983 20.443 22.7982 20.1657 22.6138C19.9486 22.4695 19.7317 22.3248 19.5149 22.18C19.3502 22.07 19.1854 21.9602 19.0204 21.8505C18.8033 21.7062 18.5865 21.5615 18.3697 21.4167C18.2049 21.3067 18.0401 21.1969 17.8752 21.0872C17.6842 20.9602 17.4933 20.8329 17.3025 20.7055C17.0448 20.5334 16.7869 20.3617 16.5289 20.1901C16.4183 20.1166 16.3078 20.043 16.1972 19.9695C16.1528 19.94 16.1085 19.9104 16.0641 19.8809C15.7977 19.7037 15.7977 19.7037 15.7311 19.6594C15.6868 19.6299 15.6425 19.6004 15.5982 19.5709C15.4862 19.4964 15.3742 19.4219 15.2622 19.3474C14.8555 19.0766 14.4483 18.8066 14.0399 18.5383C13.8348 18.6457 13.6445 18.7691 13.4541 18.901C13.3468 18.9753 13.2382 19.0475 13.1294 19.1193C13.0912 19.1445 13.0531 19.1696 13.015 19.1948C12.9955 19.2077 12.976 19.2206 12.9559 19.2338C12.8465 19.3062 12.7374 19.3789 12.6283 19.4515C12.4459 19.573 12.2633 19.6942 12.0806 19.8151C11.9345 19.9118 11.7887 20.0087 11.6429 20.1058C11.4787 20.215 11.3145 20.3241 11.1501 20.4329C10.8968 20.6006 10.6439 20.7689 10.3911 20.9373C10.1399 21.1045 9.88868 21.2717 9.637 21.4382C9.43272 21.5733 9.22898 21.7093 9.02528 21.8454C8.8592 21.9563 8.69301 22.067 8.52671 22.1776C8.4608 22.2215 8.39489 22.2653 8.32898 22.3092C8.282 22.3404 8.23501 22.3717 8.18801 22.4029C8.11223 22.4533 8.03648 22.5037 7.96074 22.5542C7.93564 22.5709 7.91053 22.5876 7.88467 22.6048C7.74538 22.6978 7.60672 22.7916 7.46874 22.8866C7.454 22.8967 7.43926 22.9069 7.42407 22.9173C7.3524 22.9666 7.28083 23.016 7.2094 23.0656C7.18388 23.0832 7.15837 23.1008 7.13208 23.1189C7.10947 23.1345 7.08687 23.1502 7.06359 23.1664C7.00858 23.1999 7.00858 23.1999 6.95532 23.1999C7.04438 22.8176 7.15 22.4405 7.25578 22.0627C7.27509 21.9935 7.29441 21.9244 7.31371 21.8552C7.3601 21.689 7.40656 21.5229 7.45305 21.3568C7.49074 21.2221 7.52839 21.0874 7.56603 20.9528C7.85294 19.9261 8.1408 18.8997 8.43016 17.8738C8.43751 17.8478 8.44485 17.8217 8.45242 17.7949C8.49492 17.6442 8.53745 17.4935 8.58002 17.3428C8.5936 17.2947 8.60717 17.2467 8.62073 17.1986C8.69431 16.9378 8.76839 16.6772 8.84355 16.4169C8.87856 16.2956 8.91345 16.1743 8.94834 16.053C8.96523 15.9945 8.98218 15.9359 8.9992 15.8774C9.0228 15.7963 9.04619 15.715 9.06954 15.6338C9.07663 15.6096 9.08372 15.5855 9.09102 15.5606C9.13756 15.403 9.13756 15.403 9.13929 15.2397C9.10036 15.1862 9.10036 15.1862 9.04274 15.1409C9.0207 15.1221 8.99865 15.1033 8.97595 15.0838C8.8773 15.0035 8.77853 14.9234 8.67901 14.8442C8.55087 14.7421 8.42534 14.637 8.30032 14.531C8.14874 14.4025 7.99581 14.2762 7.84058 14.1524C7.70337 14.0427 7.56847 13.9303 7.43362 13.8176C7.32011 13.723 7.20564 13.6298 7.09015 13.5376C6.93022 13.41 6.77376 13.2783 6.61757 13.1459C6.48532 13.0341 6.35145 12.9247 6.21615 12.8168C6.05832 12.6906 5.90327 12.5611 5.74806 12.4316C5.6714 12.3676 5.59442 12.3041 5.51709 12.2411C5.42177 12.1633 5.32712 12.0848 5.23265 12.0059C5.06495 11.866 4.89633 11.7276 4.7258 11.5913C4.58823 11.4811 4.45281 11.3682 4.31747 11.2551C4.20396 11.1605 4.08948 11.0673 3.974 10.9751C3.82932 10.8595 3.6865 10.7416 3.54453 10.6224C3.52549 10.6065 3.50646 10.5906 3.48684 10.5743C3.38583 10.4891 3.29061 10.4021 3.19995 10.3055C3.25322 10.251 3.25322 10.251 3.30944 10.2444C3.34466 10.2445 3.34466 10.2445 3.38059 10.2447C3.40765 10.2447 3.4347 10.2446 3.46258 10.2446C3.5075 10.245 3.5075 10.245 3.55332 10.2454C3.60078 10.2455 3.60078 10.2455 3.6492 10.2455C3.73729 10.2457 3.82538 10.2462 3.91347 10.2467C4.00837 10.2472 4.10327 10.2474 4.19817 10.2476C4.3627 10.2481 4.52723 10.2487 4.69176 10.2494C4.95168 10.2506 5.2116 10.2512 5.47152 10.2517C5.56038 10.2519 5.64924 10.2521 5.73811 10.2523C5.77142 10.2523 5.77142 10.2523 5.80541 10.2524C6.05834 10.253 6.31126 10.2537 6.56419 10.2544C6.58732 10.2545 6.61045 10.2545 6.63427 10.2546C7.00924 10.2557 7.38421 10.2571 7.75918 10.2586C8.14385 10.2601 8.52851 10.2611 8.91318 10.2616C9.15062 10.262 9.38806 10.2628 9.6255 10.2641C9.78813 10.265 9.95076 10.2654 10.1134 10.2654C10.2073 10.2654 10.3012 10.2657 10.3952 10.2665C10.4968 10.2674 10.5985 10.2673 10.7002 10.267C10.7301 10.2675 10.7599 10.2679 10.7907 10.2684C10.8642 10.2677 10.9317 10.2664 11.0037 10.251C11.0646 10.1905 11.0646 10.1905 11.0836 10.1147C11.0926 10.0935 11.1017 10.0723 11.111 10.0504C11.1192 10.0281 11.1275 10.0058 11.1359 9.9828C11.1455 9.95705 11.1551 9.9313 11.165 9.90477C11.1752 9.87692 11.1854 9.84907 11.1959 9.82038C11.2123 9.77622 11.2123 9.77622 11.229 9.73117C11.2526 9.66751 11.2761 9.60383 11.2996 9.54013C11.3563 9.38664 11.4132 9.23329 11.4702 9.07993C11.4897 9.02732 11.5092 8.9747 11.5288 8.92208C11.6502 8.59491 11.7736 8.26855 11.8975 7.94237C11.9393 7.83237 11.9811 7.72237 12.0228 7.61236C12.0332 7.58509 12.0435 7.55782 12.0542 7.52972C12.1736 7.21489 12.2919 6.89967 12.4102 6.58444C12.5969 6.08735 12.7838 5.5904 12.9712 5.09361C12.9893 5.0458 12.9893 5.0458 13.0077 4.99703C13.0689 4.83464 13.1302 4.67225 13.1914 4.50986C13.3045 4.21026 13.4174 3.91063 13.5304 3.61101C13.5747 3.49365 13.619 3.37628 13.6632 3.25892C13.8252 2.82951 13.8252 2.82951 13.9866 2.3999ZM13.9067 4.00829C13.4865 5.12126 13.0742 6.23733 12.6626 7.35364C12.5354 7.69847 12.4078 8.04312 12.2798 8.38761C12.2373 8.50217 12.1948 8.61675 12.1523 8.73137C12.0564 8.99028 11.9602 9.24902 11.8621 9.50707C11.819 9.62057 11.7762 9.7342 11.7335 9.84785C11.7132 9.90145 11.6928 9.95498 11.6722 10.0085C11.6439 10.0822 11.6161 10.1561 11.5883 10.23C11.5799 10.2516 11.5715 10.2731 11.5628 10.2952C11.5141 10.4273 11.5013 10.5189 11.5363 10.6599C11.5816 10.7365 11.5816 10.7365 11.6429 10.8048C11.6754 10.8434 11.6754 10.8434 11.7086 10.8828C11.7909 10.9768 11.8732 11.0706 11.9562 11.1639C12.0158 11.2324 12.0726 11.3026 12.1289 11.3738C12.2678 11.5494 12.4129 11.7191 12.5578 11.8895C12.6266 11.9706 12.6949 12.0521 12.7631 12.1337C12.7762 12.1493 12.7893 12.165 12.8028 12.1811C12.8291 12.2126 12.8554 12.2441 12.8818 12.2756C12.9348 12.3391 12.988 12.4025 13.0411 12.4659C13.0677 12.4977 13.0942 12.5294 13.1208 12.5611C13.1886 12.6421 13.2565 12.723 13.3245 12.8037C13.4036 12.8975 13.4822 12.9917 13.5605 13.0861C13.5824 13.1125 13.6044 13.1388 13.627 13.1659C13.6462 13.1896 13.6655 13.2133 13.6853 13.2378C13.7102 13.2682 13.7102 13.2682 13.7356 13.2992C13.7776 13.3651 13.7902 13.4176 13.8002 13.4951C13.6659 13.5002 13.5577 13.485 13.4292 13.4454C13.4116 13.44 13.394 13.4347 13.3759 13.4292C13.3173 13.4113 13.2589 13.3931 13.2004 13.3749C13.1584 13.3621 13.1163 13.3492 13.0742 13.3364C12.9837 13.3087 12.8932 13.2809 12.8028 13.2529C12.6578 13.2081 12.5127 13.1637 12.3675 13.1193C12.3306 13.108 12.3306 13.108 12.293 13.0965C12.2428 13.0812 12.1926 13.0658 12.1424 13.0505C12.0658 13.0271 11.9892 13.0036 11.9126 12.9801C11.4217 12.8298 10.9301 12.6823 10.4382 12.5354C10.2571 12.4813 10.076 12.4271 9.89496 12.3729C9.84931 12.3593 9.80365 12.3456 9.75799 12.332C9.2092 12.1678 8.66071 12.0025 8.11222 11.8373C7.35967 11.6105 6.60694 11.3844 5.85387 11.1595C5.80224 11.1441 5.75061 11.1286 5.69899 11.1132C5.63724 11.0948 5.57548 11.0763 5.51372 11.0579C5.4863 11.0497 5.45887 11.0415 5.43062 11.0331C5.39191 11.0215 5.39191 11.0215 5.35242 11.0098C5.30217 10.9946 5.25202 10.979 5.20198 10.963C5.17848 10.9556 5.15498 10.9481 5.13076 10.9404C5.11025 10.9338 5.08974 10.9271 5.06861 10.9202C4.98476 10.8984 4.91064 10.8995 4.82461 10.9053C4.83278 10.9885 4.85219 11.0153 4.91159 11.075C4.93782 11.0966 4.96405 11.1182 4.99107 11.1404C5.01248 11.1581 5.01248 11.1581 5.03431 11.1762C5.16381 11.2829 5.29572 11.3865 5.42793 11.4897C5.5199 11.5615 5.61096 11.6345 5.70186 11.7078C5.71734 11.7202 5.73282 11.7327 5.74877 11.7456C5.78016 11.7709 5.81154 11.7962 5.84293 11.8215C5.92069 11.8842 5.99855 11.9468 6.0764 12.0093C6.1684 12.0833 6.26039 12.1573 6.35231 12.2314C6.52624 12.3715 6.70063 12.511 6.87541 12.65C7.06513 12.8008 7.25433 12.9524 7.4431 13.1045C7.52017 13.1666 7.5973 13.2286 7.67443 13.2906C7.76643 13.3646 7.85842 13.4385 7.95034 13.5126C8.12427 13.6527 8.29866 13.7922 8.47344 13.9312C8.61798 14.0462 8.76236 14.1613 8.90624 14.2771C8.92117 14.2891 8.9361 14.3011 8.95148 14.3135C9.02796 14.3751 9.10435 14.4367 9.18069 14.4985C9.24314 14.549 9.30578 14.5992 9.36859 14.6493C9.42845 14.697 9.48738 14.7457 9.54587 14.7952C9.5732 14.8176 9.60052 14.8401 9.62868 14.8632C9.65251 14.8833 9.67633 14.9033 9.70088 14.924C9.82791 14.9946 9.95963 14.9806 10.0951 14.9408C10.1321 14.9284 10.169 14.9158 10.2058 14.9028C10.2265 14.8958 10.2471 14.8889 10.2684 14.8817C10.3377 14.8582 10.4068 14.8343 10.476 14.8104C10.5259 14.7934 10.5758 14.7765 10.6257 14.7595C10.7357 14.7222 10.8457 14.6848 10.9556 14.6472C11.149 14.5812 11.3426 14.5161 11.5363 14.4512C11.5619 14.4426 11.5619 14.4426 11.588 14.4339C11.675 14.4047 11.7621 14.3755 11.8491 14.3464C12.0056 14.2939 12.1622 14.2414 12.3187 14.1888C12.3696 14.1718 12.4204 14.1547 12.4713 14.1377C12.626 14.0858 12.7807 14.0338 12.9354 13.9818C13.0626 13.939 13.1899 13.8963 13.3173 13.8536C13.3623 13.8385 13.4074 13.8234 13.4524 13.8082C13.5134 13.7877 13.5743 13.7673 13.6353 13.7469C13.6526 13.741 13.6699 13.7351 13.6878 13.7291C13.7868 13.6962 13.8836 13.6735 13.9866 13.6586C13.8956 13.7784 13.8046 13.8982 13.7135 14.018C13.6992 14.0368 13.6849 14.0557 13.6702 14.0751C13.6392 14.1159 13.6082 14.1567 13.5772 14.1975C13.4949 14.3057 13.4127 14.4139 13.3306 14.5221C13.1785 14.7225 13.0261 14.9226 12.8727 15.122C12.7104 15.3332 12.5496 15.5455 12.3886 15.7577C12.2043 16.0006 12.0199 16.2434 11.834 16.4851C11.6878 16.6753 11.5429 16.8665 11.3978 17.0576C11.3043 17.1809 11.2106 17.304 11.117 17.4272C11.0383 17.5307 10.9596 17.6343 10.881 17.7379C10.7286 17.9386 10.576 18.1391 10.4224 18.3388C10.2762 18.529 10.1313 18.7203 9.9862 18.9114C9.89266 19.0346 9.79905 19.1577 9.70545 19.2809C9.62674 19.3845 9.54805 19.4881 9.4694 19.5917C9.31704 19.7924 9.1644 19.9928 9.01081 20.1925C8.88085 20.3617 8.75189 20.5316 8.62294 20.7015C8.55919 20.7855 8.4953 20.8694 8.43131 20.9532C8.35377 21.0548 8.27658 21.1566 8.19956 21.2586C8.16865 21.2994 8.13761 21.34 8.10645 21.3806C8.06091 21.4399 8.01579 21.4995 7.97073 21.5591C7.95692 21.5769 7.94312 21.5947 7.92889 21.613C7.87268 21.6881 7.83582 21.7401 7.8257 21.8355C7.82851 21.8539 7.83133 21.8724 7.83423 21.8914C7.8781 21.9159 7.8781 21.9159 7.94076 21.9186C8.00635 21.8848 8.06386 21.8501 8.1247 21.8087C8.14318 21.7966 8.16165 21.7844 8.18069 21.7718C8.24307 21.7303 8.30503 21.6883 8.36691 21.646C8.39992 21.6235 8.39992 21.6235 8.43359 21.6006C8.60284 21.4849 8.77125 21.3679 8.93953 21.2508C9.21689 21.0577 9.49374 20.8649 9.77937 20.6848C9.98789 20.5527 10.19 20.4108 10.3928 20.2697C10.84 19.9586 11.29 19.652 11.7421 19.3483C12.1691 19.0613 12.5932 18.77 13.0156 18.476C13.2379 18.3216 13.4608 18.1695 13.6904 18.0266C13.8964 17.907 13.8964 17.907 14.003 17.7021C14.0264 17.5576 14.0201 17.4102 14.0193 17.2642C14.0193 17.2263 14.0193 17.1884 14.0193 17.1505C14.0194 17.0481 14.019 16.9456 14.0187 16.8432C14.0183 16.736 14.0183 16.6287 14.0182 16.5215C14.0181 16.3187 14.0176 16.1158 14.0171 15.913C14.0165 15.682 14.0162 15.451 14.0159 15.22C14.0154 14.745 14.0145 14.2699 14.0133 13.7949C14.1305 13.8319 14.1917 13.8545 14.2639 13.9577C14.2796 13.9798 14.2953 14.0018 14.3115 14.0245C14.3279 14.0483 14.3443 14.072 14.3612 14.0965C14.3967 14.1466 14.4323 14.1966 14.4679 14.2466C14.4856 14.2717 14.5032 14.2968 14.5214 14.3226C14.5939 14.4247 14.6688 14.5247 14.744 14.6247C14.7722 14.6622 14.8003 14.6998 14.8284 14.7373C14.8428 14.7566 14.8573 14.7759 14.8721 14.7957C15.0891 15.0857 15.3056 15.3761 15.5192 15.6687C15.6096 15.7921 15.7013 15.9145 15.7927 16.0371C15.9194 16.207 16.0456 16.3771 16.1706 16.5483C16.2939 16.7171 16.4185 16.885 16.5435 17.0526C16.6812 17.2373 16.8182 17.4224 16.954 17.6085C17.085 17.7876 17.2176 17.9653 17.3502 18.1431C17.4597 18.2901 17.5685 18.4375 17.6766 18.5856C17.767 18.709 17.8587 18.8314 17.9501 18.954C18.0894 19.141 18.2281 19.3284 18.3656 19.5168C18.4966 19.6958 18.6292 19.8736 18.7618 20.0514C18.8712 20.1982 18.9799 20.3455 19.0878 20.4934C19.18 20.6192 19.2735 20.7441 19.3667 20.8691C19.4836 21.0261 19.6005 21.1831 19.7162 21.3411C19.7342 21.3656 19.7522 21.3901 19.7707 21.4154C19.803 21.4598 19.8349 21.5046 19.8665 21.5496C19.8806 21.5696 19.8947 21.5896 19.9093 21.6103C19.9211 21.6272 19.9328 21.6442 19.9449 21.6617C19.9806 21.7085 19.9806 21.7085 20.0591 21.7278C20.0479 21.5379 20.0138 21.3723 19.9517 21.1934C19.9393 21.1565 19.9393 21.1565 19.9266 21.119C19.8995 21.0384 19.8719 20.958 19.8444 20.8776C19.8251 20.8205 19.8058 20.7633 19.7865 20.7062C19.7465 20.5875 19.7063 20.4689 19.6661 20.3504C19.5828 20.1047 19.5012 19.8585 19.4195 19.6123C19.3754 19.4794 19.3312 19.3465 19.287 19.2136C19.2243 19.0252 19.1616 18.8367 19.099 18.6483C18.9071 18.0713 18.7152 17.4944 18.5226 16.9176C18.4375 16.6627 18.3526 16.4077 18.2679 16.1527C18.2486 16.0946 18.2293 16.0364 18.21 15.9783C18.1731 15.8671 18.1362 15.7559 18.0993 15.6447C18.0662 15.545 18.0329 15.4453 17.9995 15.3457C17.9715 15.2622 17.9442 15.1786 17.9178 15.0945C17.9068 15.0605 17.8958 15.0264 17.8844 14.9913C17.8754 14.9625 17.8664 14.9337 17.8571 14.9041C17.7987 14.7825 17.7169 14.7328 17.5947 14.6852C17.558 14.674 17.5212 14.6631 17.4844 14.6525C17.4642 14.6464 17.4439 14.6403 17.4231 14.634C17.356 14.6139 17.2889 14.5942 17.2217 14.5745C17.1743 14.5604 17.1268 14.5462 17.0794 14.532C16.9789 14.502 16.8784 14.4721 16.7778 14.4425C16.6219 14.3965 16.4661 14.35 16.3104 14.3034C15.9092 14.1835 15.5079 14.0643 15.1059 13.9469C14.9946 13.9144 14.8833 13.8816 14.772 13.8487C14.7005 13.8277 14.6289 13.8073 14.5572 13.7869C14.5156 13.7746 14.4739 13.7624 14.4323 13.7501C14.4049 13.7426 14.4049 13.7426 14.3769 13.7349C14.3276 13.72 14.3276 13.72 14.253 13.6859C14.235 13.6292 14.235 13.6292 14.2263 13.5768C14.4309 13.4934 14.6415 13.4315 14.8525 13.3679C14.8944 13.3552 14.9362 13.3426 14.978 13.3299C15.0915 13.2955 15.205 13.2612 15.3185 13.227C15.4147 13.1979 15.511 13.1688 15.6072 13.1397C16.5284 12.8609 17.45 12.5836 18.3716 12.3064C19.5074 11.9647 20.6429 11.6222 21.7779 11.2779C21.8503 11.2559 21.9226 11.234 21.995 11.2121C22.1835 11.155 22.3719 11.0976 22.5602 11.0396C22.6144 11.023 22.6687 11.0064 22.723 10.99C22.7952 10.968 22.8673 10.9457 22.9394 10.9233C22.9602 10.917 22.9811 10.9108 23.0025 10.9044C23.1224 10.8671 23.1224 10.8671 23.2019 10.769C22.3388 10.7609 21.4756 10.7546 20.6124 10.7509C20.5104 10.7504 20.4084 10.75 20.3064 10.7495C20.2759 10.7494 20.276 10.7494 20.2449 10.7492C19.9165 10.7477 19.5881 10.7449 19.2597 10.7416C18.9225 10.7383 18.5853 10.7363 18.2481 10.7356C18.0401 10.7351 17.8323 10.7336 17.6243 10.7307C17.4647 10.7286 17.305 10.7284 17.1453 10.7289C17.08 10.7288 17.0146 10.7281 16.9493 10.7267C16.5922 10.7063 16.5922 10.7063 16.2761 10.8454C16.1922 10.93 16.1287 11.0229 16.0641 11.1234C16.0252 11.1726 15.9858 11.2215 15.9459 11.2699C15.9269 11.2941 15.9079 11.3182 15.8883 11.3432C15.8122 11.4385 15.7336 11.5314 15.6546 11.6243C15.5455 11.7525 15.437 11.8811 15.33 12.011C15.229 12.1336 15.1274 12.2557 15.0254 12.3774C14.9108 12.5139 14.7968 12.6511 14.6834 12.7887C14.5767 12.9179 14.469 13.0464 14.3611 13.1746C14.3485 13.1895 14.3359 13.2045 14.323 13.2199C14.3109 13.2341 14.2989 13.2484 14.2865 13.263C14.2555 13.3012 14.227 13.3414 14.1988 13.3818C14.1366 13.4516 14.1021 13.4538 14.0133 13.4678C14.0133 13.448 14.0133 13.4283 14.0133 13.408C14.0139 12.2386 14.0144 11.0692 14.0146 9.89978C14.0147 9.75947 14.0147 9.61915 14.0147 9.47884C14.0147 9.4509 14.0147 9.42297 14.0148 9.39418C14.0149 8.94147 14.0151 8.48877 14.0153 8.03606C14.0156 7.57176 14.0157 7.10747 14.0158 6.64317C14.0158 6.35653 14.0159 6.06988 14.0161 5.78324C14.0163 5.58685 14.0163 5.39046 14.0163 5.19407C14.0163 5.08066 14.0163 4.96724 14.0164 4.85383C14.0166 4.75008 14.0166 4.64632 14.0165 4.54257C14.0165 4.50496 14.0165 4.46735 14.0166 4.42974C14.0167 4.37876 14.0166 4.32777 14.0165 4.27678C14.0166 4.24842 14.0166 4.22005 14.0166 4.19083C14.0136 4.12548 14.005 4.07068 13.9866 4.00829C13.9603 4.00829 13.9339 4.00829 13.9067 4.00829Z" fill="#364958"/>
<circle cx="14" cy="14" r="12.5" stroke="#364958" stroke-width="3"/>
</svg>
