<?xml version="1.0" standalone="no"?>
<!DOCTYPE svg PUBLIC "-//W3C//DTD SVG 20010904//EN"
 "http://www.w3.org/TR/2001/REC-SVG-20010904/DTD/svg10.dtd">
<svg version="1.0" xmlns="http://www.w3.org/2000/svg"
 width="1274.000000pt" height="1075.000000pt" viewBox="0 0 1274.000000 1075.000000"
 preserveAspectRatio="xMidYMid meet">

<g transform="translate(0.000000,1075.000000) scale(0.100000,0.100000)"
fill="#000000" stroke="none">
<path d="M209 10726 c-82 -29 -145 -102 -177 -206 -22 -70 -24 -331 -3 -435
54 -280 142 -530 292 -826 288 -571 698 -1000 1264 -1324 54 -31 207 -111 338
-177 l239 -119 -6 -47 c-14 -120 -28 -667 -23 -914 9 -420 53 -644 161 -812
33 -52 104 -127 142 -153 12 -8 31 -42 44 -82 l24 -69 -75 -88 c-167 -198
-352 -362 -595 -530 -232 -161 -317 -263 -345 -419 -35 -190 70 -444 287 -692
30 -33 54 -63 54 -66 0 -3 -30 -45 -67 -94 -138 -182 -271 -407 -333 -563
-159 -398 -66 -694 274 -871 43 -23 166 -75 274 -115 296 -113 389 -169 411
-250 8 -29 5 -50 -15 -112 -47 -150 -28 -304 56 -448 57 -96 226 -258 370
-353 380 -252 1017 -496 1785 -686 1028 -254 2125 -334 3140 -229 831 86 1770
340 2365 640 387 195 600 390 671 614 26 82 29 204 6 281 -12 41 -14 64 -7 89
30 105 123 169 426 293 316 129 440 221 515 381 27 57 33 84 37 162 6 122 -13
205 -82 349 -86 179 -221 362 -435 587 -55 58 -101 109 -101 112 0 3 39 52 86
108 214 257 307 455 308 658 1 99 -16 170 -56 239 -10 18 -17 35 -15 37 2 2
44 -5 94 -16 168 -37 437 -79 577 -90 314 -26 509 35 589 184 18 34 22 58 22
136 0 106 -18 174 -85 317 -115 246 -264 389 -810 778 -728 518 -1190 940
-1471 1345 -64 93 -100 153 -202 340 -138 256 -221 374 -392 560 -287 314
-607 533 -1151 789 -458 216 -787 337 -1214 446 -488 124 -931 185 -1485 205
-159 5 -391 15 -515 20 -288 13 -508 13 -740 -1 l-185 -11 -155 75 c-417 202
-739 280 -1515 366 -339 38 -538 51 -781 51 -323 0 -475 25 -719 117 -192 73
-362 165 -620 337 -150 101 -261 168 -294 179 -63 20 -132 21 -182 3z m272
-417 c405 -284 802 -458 1159 -509 41 -6 237 -15 435 -20 360 -10 452 -16 861
-65 655 -78 982 -170 1379 -386 489 -266 890 -617 1170 -1024 136 -199 243
-332 370 -464 194 -199 380 -346 615 -484 88 -51 234 -180 185 -163 -11 4 -58
17 -105 29 -118 30 -422 32 -550 3 -77 -17 -112 -18 -375 -12 -757 17 -1393
98 -2046 261 -584 145 -966 285 -1494 546 -364 179 -600 326 -815 507 -422
354 -783 945 -913 1497 -38 160 -54 385 -27 385 4 0 72 -45 151 -101z m5249
-1018 c344 -11 508 -21 735 -47 617 -70 1187 -219 1735 -454 196 -84 540 -252
675 -329 465 -269 780 -583 1001 -999 204 -385 352 -582 673 -902 286 -285
620 -563 1009 -840 89 -63 162 -118 162 -122 0 -3 -30 -17 -67 -29 -86 -30
-219 -32 -308 -5 -33 10 -151 58 -263 107 -601 264 -2010 831 -2578 1037 -412
150 -833 261 -1171 310 -51 7 -52 8 -322 274 -215 212 -284 274 -338 304 -346
191 -632 450 -857 775 -263 379 -457 592 -753 829 -70 57 -130 105 -133 107
-6 6 294 0 800 -16z m-3005 -1881 c382 -138 948 -287 1385 -363 51 -9 -40 -7
-188 3 -421 31 -934 110 -1372 213 -110 26 -107 20 -95 164 l7 82 51 -21 c29
-11 124 -46 212 -78z m-51 -325 c758 -169 1456 -225 2636 -212 294 4 627 11
740 17 113 6 275 12 360 13 l155 2 86 -41 c277 -133 452 -348 530 -653 18 -69
32 -107 42 -109 28 -6 185 27 236 48 98 43 171 153 171 260 0 93 -58 229 -153
363 -31 42 -50 77 -43 77 59 0 471 -100 682 -166 419 -129 1862 -698 2749
-1082 171 -73 346 -147 390 -162 188 -68 378 -56 547 33 67 35 50 41 203 -78
190 -147 291 -261 359 -406 49 -102 65 -167 46 -179 -29 -18 -148 -23 -280
-12 -235 19 -499 70 -1080 208 -173 42 -412 95 -530 119 -347 71 -589 144
-1230 373 -201 71 -475 166 -610 210 -872 288 -1599 429 -2370 462 -135 5
-357 15 -495 20 -275 12 -505 27 -990 66 -382 31 -875 43 -1045 25 -254 -27
-420 -77 -709 -215 -215 -103 -279 -126 -355 -126 -100 0 -168 64 -211 201
-50 158 -58 237 -62 627 -5 338 -4 362 12 362 10 0 108 -20 219 -45z m1671
-1105 c105 -6 330 -21 500 -35 484 -38 727 -53 1030 -65 809 -31 1065 -56
1560 -155 533 -107 931 -225 1790 -530 636 -226 878 -299 1210 -366 330 -66
359 -75 397 -110 18 -17 90 -75 159 -129 152 -120 205 -175 215 -225 28 -151
-104 -379 -391 -673 l-139 -143 164 -162 c404 -397 589 -663 592 -850 1 -49
-3 -62 -29 -95 -43 -54 -123 -104 -248 -158 -275 -116 -325 -139 -400 -183
-96 -56 -213 -167 -248 -236 -57 -114 -72 -234 -42 -345 20 -75 19 -96 -10
-158 -112 -241 -644 -522 -1400 -741 -792 -228 -1512 -323 -2355 -308 -779 14
-1389 95 -2125 282 -990 251 -1718 593 -1883 884 -45 80 -48 115 -18 211 60
190 14 359 -137 495 -75 68 -223 143 -437 221 -400 146 -482 238 -421 476 57
223 213 473 548 877 l21 26 -112 115 c-295 302 -402 519 -317 639 13 17 98 85
189 150 92 65 205 149 252 186 169 136 427 411 567 607 l32 45 -25 52 c-28 62
-28 61 -10 61 42 0 203 63 386 150 222 106 317 140 461 165 190 33 383 40 674
25z"/>
<path d="M5020 5039 c-76 -11 -257 -68 -650 -204 -401 -139 -425 -145 -531
-145 -113 0 -191 20 -315 82 -126 61 -181 70 -241 40 -91 -47 -164 -173 -198
-340 -13 -64 -16 -116 -12 -220 5 -156 20 -219 77 -341 95 -198 308 -330 533
-331 32 0 57 -3 55 -7 -82 -165 -90 -186 -95 -241 -7 -78 8 -122 61 -170 83
-77 231 -109 456 -99 449 20 993 211 1315 462 330 258 599 743 571 1034 -24
261 -215 425 -553 476 -105 16 -379 18 -473 4z m20 -314 c11 -22 16 -73 18
-187 l4 -158 104 0 c173 0 327 -33 368 -79 17 -18 17 -21 0 -47 -38 -58 -195
-137 -355 -180 -35 -10 -68 -21 -73 -25 -5 -5 2 -33 16 -66 33 -75 51 -154 51
-224 0 -67 -6 -79 -42 -79 -58 0 -178 101 -260 218 l-23 32 -61 -56 c-78 -70
-158 -119 -221 -135 -45 -11 -50 -10 -63 7 -27 36 6 158 72 269 20 32 34 59
33 60 -2 1 -28 12 -58 24 -78 31 -190 110 -224 159 -25 35 -28 45 -19 65 6 14
33 35 60 48 39 19 68 24 158 27 61 2 133 0 162 -6 l52 -9 22 51 c41 96 114
211 170 269 63 65 85 70 109 22z"/>
<path d="M7475 5039 c-166 -24 -327 -89 -416 -168 -202 -178 -199 -498 7 -856
125 -217 296 -412 468 -532 100 -71 313 -182 464 -242 532 -212 1137 -240
1276 -59 13 18 30 54 36 79 15 59 -5 143 -55 238 -19 36 -35 69 -35 73 0 4 26
8 58 8 143 0 313 72 418 177 148 148 220 413 180 669 -36 239 -139 391 -269
401 -46 4 -63 -1 -156 -47 -152 -75 -230 -94 -361 -87 -96 4 -120 10 -285 67
-489 169 -805 269 -878 279 -91 13 -365 12 -452 0z m555 -336 c49 -55 126
-178 157 -251 l28 -63 65 8 c205 25 370 -17 370 -95 0 -40 -108 -138 -203
-184 -42 -21 -81 -38 -87 -38 -7 0 -10 -3 -8 -7 2 -5 25 -52 52 -105 44 -87
49 -105 50 -165 1 -64 0 -68 -22 -71 -57 -8 -182 60 -274 150 -28 27 -51 48
-52 46 -79 -121 -194 -228 -272 -252 -73 -23 -73 161 1 321 l24 53 -42 10
c-225 57 -414 161 -405 221 7 54 169 99 360 102 l118 2 0 130 c0 139 8 190 34
230 16 24 18 24 45 11 15 -8 43 -32 61 -53z"/>
<path d="M6320 3314 c-161 -43 -312 -160 -377 -292 -35 -69 -38 -83 -38 -156
0 -132 56 -225 186 -312 154 -102 350 -138 518 -95 287 72 451 271 397 481
-24 92 -61 153 -137 225 -74 69 -175 125 -274 150 -74 19 -203 18 -275 -1z"/>
<path d="M5110 2315 c-47 -30 -89 -56 -95 -58 -23 -8 137 -227 267 -363 299
-313 638 -453 943 -389 39 8 115 37 171 65 l102 50 83 -39 c126 -59 195 -75
329 -74 181 1 338 52 512 165 157 103 378 339 486 519 l22 36 -94 57 c-52 31
-96 56 -99 56 -2 0 -26 -33 -52 -72 -109 -165 -244 -307 -381 -398 -270 -183
-519 -185 -748 -6 -33 25 -65 46 -71 46 -6 0 -24 -14 -41 -31 -46 -48 -153
-115 -221 -138 -76 -26 -201 -28 -288 -6 -227 59 -482 265 -676 548 -33 48
-61 87 -62 87 -1 0 -40 -25 -87 -55z"/>
</g>
</svg>
